<?xml version="1.0" standalone="no"?><!DOCTYPE svg PUBLIC "-//W3C//DTD SVG 1.1//EN" "http://www.w3.org/Graphics/SVG/1.1/DTD/svg11.dtd"><svg t="1773147718635" class="icon" viewBox="0 0 1024 1024" version="1.1" xmlns="http://www.w3.org/2000/svg" p-id="1681" xmlns:xlink="http://www.w3.org/1999/xlink" width="200" height="200"><path d="M478.72 837.851429v-0.073143h-5.485714l-9.581715-16.566857A112.969143 112.969143 0 0 0 365.714286 764.708571H113.005714V259.328H365.714286c60.342857 0 113.737143 29.769143 146.285714 75.446857a179.126857 179.126857 0 0 1 146.285714-75.446857h252.708572v505.344H658.285714a112.969143 112.969143 0 0 0-97.938285 56.539429l-9.581715 16.603428-5.522285-0.036571-66.486858 0.036571zM365.714286 325.778286H179.529143V698.148571H365.714286a179.2 179.2 0 0 1 106.971428 35.364572l6.034286 4.681143V438.857143a113.042286 113.042286 0 0 0-106.605714-112.859429L365.714286 325.814857z m478.756571 0H658.285714l-6.4 0.182857A113.042286 113.042286 0 0 0 545.243429 438.857143l0.036571 299.337143 6.034286-4.681143A179.2 179.2 0 0 1 658.285714 698.148571l186.185143-0.036571V325.814857z" fill="#2c2c2c" p-id="1682"></path></svg>